HIERARCHY
ROOT Hips
{
	OFFSET -0.089718 121.760773 1.256875
	CHANNELS 6 Xposition Yposition Zposition Xrotation Yrotation Zrotation 
	JOINT Spine
	{
		OFFSET 0.071961 7.257324 -0.789679
		CHANNELS 3 Xrotation Yrotation Zrotation
		JOINT Spine1
		{
			OFFSET 0.000000 12.508743 -0.658066
			CHANNELS 3 Xrotation Yrotation Zrotation
			JOINT Spine1_split
			{
				OFFSET 0.000000 12.508743 -0.658066
				CHANNELS 3 Xrotation Yrotation Zrotation
				JOINT Spine2
				{
					OFFSET 0.000000 12.508743 -0.658066
					CHANNELS 3 Xrotation Yrotation Zrotation
					JOINT Neck
					{
						OFFSET 0.000000 14.033295 7.520357
						CHANNELS 3 Xrotation Yrotation Zrotation
						JOINT Head
						{
							OFFSET 0.000000 8.198502 5.703135
							CHANNELS 3 Xrotation Yrotation Zrotation
							JOINT HeadTop_End
							{
								OFFSET 0.000000 17.760834 13.332673
								CHANNELS 3 Xrotation Yrotation Zrotation
								End Site
								{
									OFFSET 0.000000 0.000000 0.000000
								}
							}
						}
					}
					JOINT LeftShoulder
					{
						OFFSET 6.292447 5.785309 -0.668987
						CHANNELS 3 Xrotation Yrotation Zrotation
						JOINT LeftShoulder_split
						{
							OFFSET 6.292447 5.785309 -0.668987
							CHANNELS 3 Xrotation Yrotation Zrotation
							JOINT LeftArm
							{
								OFFSET 13.906050 -6.096512 1.965051
								CHANNELS 3 Xrotation Yrotation Zrotation
								JOINT LeftForeArm
								{
									OFFSET 34.136707 -0.070145 0.483191
									CHANNELS 3 Xrotation Yrotation Zrotation
									JOINT LeftHand
									{
										OFFSET 40.956070 -0.000046 0.579759
										CHANNELS 3 Xrotation Yrotation Zrotation
										JOINT LeftHandThumb1
										{
											OFFSET 9.870941 -7.205917 9.687083
											CHANNELS 3 Xrotation Yrotation Zrotation
											JOINT LeftHandThumb2
											{
												OFFSET 1.819832 -1.059479 1.085292
												CHANNELS 3 Xrotation Yrotation Zrotation
												JOINT LeftHandThumb3
												{
													OFFSET 2.094803 -1.219498 1.249332
													CHANNELS 3 Xrotation Yrotation Zrotation
													JOINT LeftHandThumb4
													{
														OFFSET 4.803749 -2.796570 2.864868
														CHANNELS 3 Xrotation Yrotation Zrotation
														End Site
														{
															OFFSET 0.000000 0.000000 0.000000
														}
													}
												}
											}
										}
										JOINT LeftHandIndex1
										{
											OFFSET 18.323029 -0.939438 4.853191
											CHANNELS 3 Xrotation Yrotation Zrotation
											JOINT LeftHandIndex2
											{
												OFFSET 4.710793 -0.000031 0.066666
												CHANNELS 3 Xrotation Yrotation Zrotation
												JOINT LeftHandIndex3
												{
													OFFSET 2.876877 -0.226105 0.045824
													CHANNELS 3 Xrotation Yrotation Zrotation
													JOINT LeftHandIndex4
													{
														OFFSET 6.145302 -0.000046 0.087005
														CHANNELS 3 Xrotation Yrotation Zrotation
														End Site
														{
															OFFSET 0.000000 0.000000 0.000000
														}
													}
												}
											}
										}
										JOINT LeftHandMiddle1
										{
											OFFSET 18.011223 0.000015 0.254925
											CHANNELS 3 Xrotation Yrotation Zrotation
											JOINT LeftHandMiddle2
											{
												OFFSET 4.946175 -0.000015 0.070024
												CHANNELS 3 Xrotation Yrotation Zrotation
												JOINT LeftHandMiddle3
												{
													OFFSET 3.341888 0.000015 0.047322
													CHANNELS 3 Xrotation Yrotation Zrotation
													JOINT LeftHandMiddle4
													{
														OFFSET 4.461334 -0.000031 0.063172
														CHANNELS 3 Xrotation Yrotation Zrotation
														End Site
														{
															OFFSET 0.000000 0.000000 0.000000
														}
													}
												}
											}
										}
										JOINT LeftHandRing1
										{
											OFFSET 15.906670 -0.087616 -3.901815
											CHANNELS 3 Xrotation Yrotation Zrotation
											JOINT LeftHandRing2
											{
												OFFSET 3.526680 -0.000031 0.049965
												CHANNELS 3 Xrotation Yrotation Zrotation
												JOINT LeftHandRing3
												{
													OFFSET 2.960831 -0.000015 0.041910
													CHANNELS 3 Xrotation Yrotation Zrotation
													JOINT LeftHandRing4
													{
														OFFSET 4.926727 -0.000031 0.069761
														CHANNELS 3 Xrotation Yrotation Zrotation
														End Site
														{
															OFFSET 0.000000 0.000000 0.000000
														}
													}
												}
											}
										}
										JOINT LeftHandPinky1
										{
											OFFSET 12.886803 -0.806839 -6.620516
											CHANNELS 3 Xrotation Yrotation Zrotation
											JOINT LeftHandPinky2
											{
												OFFSET 3.326813 0.000000 0.047121
												CHANNELS 3 Xrotation Yrotation Zrotation
												JOINT LeftHandPinky3
												{
													OFFSET 3.014618 -0.000031 0.042702
													CHANNELS 3 Xrotation Yrotation Zrotation
													JOINT LeftHandPinky4
													{
														OFFSET 5.847153 0.000031 0.082745
														CHANNELS 3 Xrotation Yrotation Zrotation
														End Site
														{
															OFFSET 0.000000 0.000000 0.000000
														}
													}
												}
											}
										}
									}
								}
							}
						}
					}
					JOINT RightShoulder
					{
						OFFSET -6.292447 5.785309 -0.668987
						CHANNELS 3 Xrotation Yrotation Zrotation
						JOINT RightShoulder_split
						{
							OFFSET -6.292447 5.785309 -0.668987
							CHANNELS 3 Xrotation Yrotation Zrotation
							JOINT RightArm
							{
								OFFSET -13.906046 -6.096527 1.965051
								CHANNELS 3 Xrotation Yrotation Zrotation
								JOINT RightForeArm
								{
									OFFSET -34.136711 -0.070145 0.483195
									CHANNELS 3 Xrotation Yrotation Zrotation
									JOINT RightHand
									{
										OFFSET -40.956062 -0.000031 0.579796
										CHANNELS 3 Xrotation Yrotation Zrotation
										JOINT RightHandThumb1
										{
											OFFSET -9.870895 -7.205978 9.687082
											CHANNELS 3 Xrotation Yrotation Zrotation
											JOINT RightHandThumb2
											{
												OFFSET -1.819832 -1.059479 1.085295
												CHANNELS 3 Xrotation Yrotation Zrotation
												JOINT RightHandThumb3
												{
													OFFSET -2.094826 -1.219513 1.249285
													CHANNELS 3 Xrotation Yrotation Zrotation
													JOINT RightHandThumb4
													{
														OFFSET -4.803757 -2.796585 2.864836
														CHANNELS 3 Xrotation Yrotation Zrotation
														End Site
														{
															OFFSET 0.000000 0.000000 0.000000
														}
													}
												}
											}
										}
										JOINT RightHandIndex1
										{
											OFFSET -18.323013 -0.939499 4.853236
											CHANNELS 3 Xrotation Yrotation Zrotation
											JOINT RightHandIndex2
											{
												OFFSET -4.710800 -0.000031 0.066705
												CHANNELS 3 Xrotation Yrotation Zrotation
												JOINT RightHandIndex3
												{
													OFFSET -2.876869 -0.226089 0.045846
													CHANNELS 3 Xrotation Yrotation Zrotation
													JOINT RightHandIndex4
													{
														OFFSET -6.145317 0.000000 0.087043
														CHANNELS 3 Xrotation Yrotation Zrotation
														End Site
														{
															OFFSET 0.000000 0.000000 0.000000
														}
													}
												}
											}
										}
										JOINT RightHandMiddle1
										{
											OFFSET -18.011230 -0.000031 0.254973
											CHANNELS 3 Xrotation Yrotation Zrotation
											JOINT RightHandMiddle2
											{
												OFFSET -4.946175 0.000000 0.069982
												CHANNELS 3 Xrotation Yrotation Zrotation
												JOINT RightHandMiddle3
												{
													OFFSET -3.341881 0.000000 0.047287
													CHANNELS 3 Xrotation Yrotation Zrotation
													JOINT RightHandMiddle4
													{
														OFFSET -4.461334 -0.000031 0.063116
														CHANNELS 3 Xrotation Yrotation Zrotation
														End Site
														{
															OFFSET 0.000000 0.000000 0.000000
														}
													}
												}
											}
										}
										JOINT RightHandRing1
										{
											OFFSET -15.906685 -0.087631 -3.901773
											CHANNELS 3 Xrotation Yrotation Zrotation
											JOINT RightHandRing2
											{
												OFFSET -3.526680 -0.000046 0.049887
												CHANNELS 3 Xrotation Yrotation Zrotation
												JOINT RightHandRing3
												{
													OFFSET -2.960831 0.000015 0.041926
													CHANNELS 3 Xrotation Yrotation Zrotation
													JOINT RightHandRing4
													{
														OFFSET -4.926727 -0.000061 0.069777
														CHANNELS 3 Xrotation Yrotation Zrotation
														End Site
														{
															OFFSET 0.000000 0.000000 0.000000
														}
													}
												}
											}
										}
										JOINT RightHandPinky1
										{
											OFFSET -12.886818 -0.806839 -6.620485
											CHANNELS 3 Xrotation Yrotation Zrotation
											JOINT RightHandPinky2
											{
												OFFSET -3.326813 -0.000015 0.047130
												CHANNELS 3 Xrotation Yrotation Zrotation
												JOINT RightHandPinky3
												{
													OFFSET -3.014618 0.000000 0.042665
													CHANNELS 3 Xrotation Yrotation Zrotation
													JOINT RightHandPinky4
													{
														OFFSET -5.847153 -0.000031 0.082798
														CHANNELS 3 Xrotation Yrotation Zrotation
														End Site
														{
															OFFSET 0.000000 0.000000 0.000000
														}
													}
												}
											}
										}
									}
								}
							}
						}
					}
				}
			}
		}
	}
	JOINT LeftUpLeg
	{
		OFFSET 13.026871 -6.336296 -1.092769
		CHANNELS 3 Xrotation Yrotation Zrotation
		JOINT LeftLeg
		{
			OFFSET 0.531735 -46.096748 9.782727
			CHANNELS 3 Xrotation Yrotation Zrotation
			JOINT LeftFoot
			{
				OFFSET -0.516061 -53.427502 -12.948194
				CHANNELS 3 Xrotation Yrotation Zrotation
				JOINT LeftToeBase
				{
					OFFSET 0.192221 -14.009666 16.364061
					CHANNELS 3 Xrotation Yrotation Zrotation
					JOINT LeftToe_End
					{
						OFFSET -1.784717 -0.561736 9.474806
						CHANNELS 3 Xrotation Yrotation Zrotation
						End Site
						{
							OFFSET 0.000000 0.000000 0.000000
						}
					}
				}
			}
		}
	}
	JOINT RightUpLeg
	{
		OFFSET -12.882952 -6.336288 -1.092769
		CHANNELS 3 Xrotation Yrotation Zrotation
		JOINT RightLeg
		{
			OFFSET -0.517510 -46.096909 9.782776
			CHANNELS 3 Xrotation Yrotation Zrotation
			JOINT RightFoot
			{
				OFFSET 0.532756 -53.427311 -12.948288
				CHANNELS 3 Xrotation Yrotation Zrotation
				JOINT RightToeBase
				{
					OFFSET -0.192224 -14.009682 16.364050
					CHANNELS 3 Xrotation Yrotation Zrotation
					JOINT RightToe_End
					{
						OFFSET 1.784716 -0.561743 9.474806
						CHANNELS 3 Xrotation Yrotation Zrotation
						End Site
						{
							OFFSET 0.000000 0.000000 0.000000
						}
					}
				}
			}
		}
	}
}
MOTION
Frames: 4
Frame Time: 0.016667
-0.328715 116.356796 1.480376 -3.651410 -0.196079 -3.719339 4.738043 1.338420 0.898066 2.572229 0.188490 0.804270 0.000000 0.000000 0.000000 2.570293 0.195339 0.808666 -1.342908 -0.050186 -0.205819 -4.952819 -0.368061 -0.267113 -0.000000 -0.000000 0.000000 0.348351 0.827243 -4.737913 0.000000 0.000000 0.000000 -3.772887 -26.672428 -75.198545 -0.011220 -6.250156 -0.118066 7.017113 -3.103064 -5.449523 3.049326 15.668198 9.171926 3.379958 10.371513 1.855505 -0.996985 8.751245 6.274695 -0.000002 -0.000001 -0.000001 1.412405 3.626851 -24.206252 0.694836 2.537462 -15.811613 0.735099 1.835390 -20.949237 -0.000001 -0.000002 -0.000003 1.618544 4.070786 -26.265786 1.456574 3.579956 -31.294455 1.199045 3.226551 -27.784602 -0.000000 -0.000001 0.000000 1.957969 4.600660 -28.919964 2.650939 4.785946 -44.955591 2.370431 4.552763 -42.011199 0.000000 0.000003 -0.000001 4.380411 8.472846 -30.794034 3.813532 1.448514 -56.139931 3.519141 5.377351 -53.404255 -0.000000 0.000000 -0.000001 0.341723 -1.804782 5.887822 0.000000 0.000000 0.000000 -6.311944 8.386437 75.643594 -0.015518 8.316167 0.118680 28.263002 5.833362 0.963130 1.766754 -17.831898 -10.731177 1.724266 -7.956041 -2.736007 -3.223214 -5.675178 -6.945978 -0.000000 0.000001 0.000002 3.345630 -7.156272 28.348406 0.377537 -1.852388 9.709048 0.427886 -1.167622 14.974324 -0.000001 -0.000001 -0.000002 4.485413 -8.459518 31.495857 0.916397 -2.794841 23.449016 0.009477 -2.676818 20.073171 -0.000002 0.000001 -0.000001 6.111952 -9.946591 35.528356 1.759012 -3.969009 34.940673 0.848102 -4.148657 32.181925 0.000000 -0.000000 0.000000 7.575459 -11.009818 38.847039 2.584297 -4.765218 44.065310 2.385557 -4.595373 41.989302 -0.000000 -0.000001 0.000001 -8.373177 13.583148 9.977728 21.726909 9.894966 2.526523 -9.694996 4.050500 -7.718757 -4.613305 0.000007 -0.000005 -0.000000 -0.000000 0.000000 -10.733069 -4.349674 -1.391831 15.829834 -9.976641 -3.500634 1.316139 -13.245602 7.810802 -4.229443 0.000007 0.000001 0.000000 -0.000000 -0.000000 
-0.323852 116.353661 1.453405 -3.638216 -0.235738 -3.734811 4.707204 1.357175 0.910750 2.581958 0.191239 0.804231 0.000000 0.000000 0.000000 2.580007 0.197996 0.808711 -1.369562 -0.055531 -0.193555 -4.967041 -0.376295 -0.278138 -0.000000 -0.000000 -0.000000 0.347454 0.837247 -4.731107 0.000000 0.000000 0.000000 -3.677210 -26.522582 -75.192712 -0.010958 -6.131324 -0.118035 7.202590 -3.069546 -5.514743 3.046101 15.705557 9.192593 3.379960 10.371513 1.855508 -1.016011 8.718345 6.279124 -0.000000 -0.000002 -0.000002 1.411871 3.635607 -24.150207 0.694834 2.537478 -15.811606 0.735258 1.835719 -20.952162 -0.000001 0.000002 0.000000 1.630581 4.109754 -26.163788 1.454829 3.577690 -31.271461 1.194567 3.219982 -27.720960 -0.000000 0.000000 0.000001 1.988804 4.676013 -28.760953 2.645931 4.781967 -44.904112 2.356698 4.540616 -41.864077 0.000001 -0.000000 -0.000001 4.416923 8.583582 -30.592021 3.805422 1.444294 -56.066759 3.495987 5.363925 -53.189197 -0.000000 -0.000002 -0.000002 0.343149 -1.818726 5.897762 0.000000 0.000000 0.000000 -6.266851 8.318933 75.649686 -0.015450 8.282790 0.118717 28.273457 5.785893 0.943292 1.781649 -17.821623 -10.702655 1.724257 -7.956041 -2.736046 -3.233670 -5.654707 -6.948739 0.000002 0.000001 0.000001 3.333422 -7.126593 28.388889 0.377535 -1.852374 9.708982 0.426739 -1.164721 14.949594 -0.000001 0.000003 0.000000 4.476268 -8.438518 31.520906 0.916400 -2.794823 23.448876 0.006744 -2.675278 20.055066 -0.000002 -0.000000 0.000002 6.106417 -9.936810 35.534578 1.758991 -3.968998 34.940427 0.846118 -4.148076 32.172424 0.000000 0.000001 -0.000000 7.572755 -11.009513 38.838494 2.584290 -4.765224 44.065300 2.385333 -4.595200 41.986829 0.000000 -0.000001 -0.000001 -8.414517 13.609093 10.019064 21.752566 9.890192 2.489422 -9.698509 4.046094 -7.697669 -4.622850 0.000002 -0.000002 0.000000 0.000001 0.000000 -10.766459 -4.350353 -1.390529 15.824969 -9.977412 -3.477578 1.334196 -13.207591 7.791333 -4.230480 -0.000012 0.000004 0.000000 0.000000 0.000000 
-0.320216 116.349434 1.426968 -3.632417 -0.281142 -3.751318 4.690807 1.381781 0.923312 2.590687 0.194722 0.803345 0.000000 0.000000 0.000000 2.588719 0.201398 0.807921 -1.393972 -0.062376 -0.180075 -4.978303 -0.387753 -0.294712 -0.000000 0.000000 -0.000000 0.346957 0.834368 -4.725007 0.000000 0.000000 0.000000 -3.603505 -26.362908 -75.189775 -0.010731 -6.012155 -0.118017 7.342643 -3.044258 -5.580713 3.042106 15.744165 9.215129 3.379965 10.371512 1.855505 -1.038290 8.679898 6.284373 0.000002 -0.000001 -0.000001 1.412523 3.647545 -24.092287 0.694844 2.537460 -15.811589 0.735429 1.836044 -20.955113 -0.000000 0.000001 -0.000001 1.644583 4.155749 -26.042907 1.452179 3.574267 -31.236835 1.187561 3.209668 -27.621037 0.000000 0.000001 0.000000 2.022499 4.763398 -28.561874 2.638309 4.775904 -44.826166 2.335413 4.521680 -41.635337 -0.000001 -0.000003 -0.000001 4.453531 8.712515 -30.333177 3.793097 1.437902 -55.955577 3.460200 5.342924 -52.855730 0.000001 -0.000000 0.000000 0.344005 -1.820554 5.906803 0.000000 0.000000 0.000000 -6.220188 8.268606 75.652849 -0.015422 8.267993 0.118714 28.272445 5.760508 0.930131 1.793842 -17.810651 -10.678214 1.724268 -7.956034 -2.736020 -3.241466 -5.639440 -6.950853 0.000001 -0.000001 -0.000002 3.320653 -7.089907 28.461193 0.377549 -1.852372 9.708947 0.425917 -1.162638 14.931951 0.000001 0.000001 -0.000001 4.466035 -8.411740 31.565992 0.916379 -2.794795 23.448738 0.004719 -2.674282 20.042318 0.000001 -0.000001 0.000003 6.098834 -9.923199 35.546022 1.758973 -3.968991 34.940222 0.844627 -4.147751 32.166004 -0.000000 0.000000 0.000000 7.567163 -11.007237 38.823393 2.584295 -4.765231 44.065321 2.385213 -4.595077 41.985617 0.000001 0.000003 0.000002 -8.448267 13.633697 10.059108 21.780589 9.885410 2.456988 -9.703746 4.048944 -7.680089 -4.631426 -0.000000 -0.000000 -0.000000 -0.000000 0.000000 -10.794621 -4.348475 -1.385538 15.823006 -9.977489 -3.457591 1.350582 -13.165657 7.772539 -4.230211 0.000007 0.000001 -0.000001 0.000000 0.000000 
-0.316928 116.343826 1.401358 -3.633863 -0.327000 -3.766433 4.689355 1.408596 0.935396 2.598472 0.198443 0.801675 0.000000 0.000000 0.000000 2.596479 0.205050 0.806348 -1.416041 -0.070100 -0.166237 -4.986066 -0.401495 -0.314482 -0.000000 -0.000000 -0.000000 0.346657 0.819096 -4.715896 0.000000 0.000000 0.000000 -3.547080 -26.197390 -75.192282 -0.010476 -5.897800 -0.117970 7.431213 -3.023207 -5.645504 3.037415 15.779306 9.237285 3.379962 10.371512 1.855506 -1.061786 8.639330 6.289898 0.000002 -0.000002 -0.000003 1.413564 3.660195 -24.035332 0.694834 2.537469 -15.811570 0.735599 1.836357 -20.957877 -0.000001 0.000001 0.000000 1.658328 4.203659 -25.908588 1.448724 3.569811 -31.191633 1.178314 3.196030 -27.488885 -0.000001 -0.000000 -0.000000 2.054674 4.854542 -28.331281 2.628423 4.767993 -44.724307 2.307524 4.496627 -41.334249 0.000001 -0.000001 -0.000001 4.484416 8.848613 -30.028128 3.776983 1.429464 -55.810053 3.413343 5.315030 -52.417385 0.000001 0.000001 0.000001 0.344246 -1.806889 5.915929 0.000000 0.000000 0.000000 -6.171299 8.227934 75.651285 -0.015421 8.267035 0.118737 28.265510 5.753042 0.918961 1.803470 -17.800475 -10.658320 1.724266 -7.956053 -2.736054 -3.246721 -5.629178 -6.952279 0.000001 0.000001 -0.000000 3.307566 -7.047279 28.561402 0.377543 -1.852372 9.708894 0.425449 -1.161416 14.921533 0.000003 -0.000002 -0.000001 4.455489 -8.380772 31.629653 0.916368 -2.794781 23.448606 0.002912 -2.673892 20.034803 -0.000000 -0.000000 -0.000001 6.091000 -9.907691 35.564549 1.758946 -3.968950 34.939949 0.843102 -4.147932 32.162224 0.000000 -0.000001 0.000000 7.561359 -11.005054 38.806167 2.584291 -4.765220 44.065293 2.385152 -4.595020 41.984995 -0.000001 -0.000000 -0.000001 -8.473797 13.653587 10.092492 21.809923 9.881040 2.432068 -9.709918 4.058962 -7.666319 -4.637891 0.000007 -0.000003 -0.000000 -0.000000 0.000000 -10.818086 -4.344868 -1.379466 15.826267 -9.977066 -3.442159 1.364375 -13.123912 7.756633 -4.228321 0.000002 0.000002 -0.000000 -0.000000 0.000000 
